<svg width="1536" height="1536" viewBox="0 0 1536 1536" fill="none" xmlns="http://www.w3.org/2000/svg">
<rect width="1536" height="1536" rx="100" fill="white"/>
<path fill-rule="evenodd" clip-rule="evenodd" d="M1288 700V776H1284H1282.59C1281.81 781.442 1280.95 786.856 1280 792.242V804H1277.8C1275.72 814.423 1273.34 824.735 1270.67 834.925V847.867L1266.99 848.211C1260.65 869.99 1252.96 891.18 1244 911.682V912H1243.86C1233.53 935.605 1221.53 958.296 1208 979.921V982.667H1206.27C1200.86 991.201 1195.21 999.567 1189.33 1007.75V1009.07L1188.31 1009.18C1093.74 1140 940.701 1225 768 1225C720.935 1225 675.33 1218.69 631.971 1206.85L631.867 1208H623.2H614.667V1211.87C614.667 1215.73 614.533 1215.87 606 1216.67C597.6 1217.6 597.333 1217.73 597.333 1221.47C597.333 1224.93 596.933 1225.33 592.667 1225.33C588.267 1225.33 588 1225.6 588 1230V1234.67H579.333H570.667V1239.33C570.667 1243.73 570.4 1244 566 1244C561.733 1244 561.333 1244.4 561.333 1247.87C561.333 1251.72 561.201 1251.73 552.096 1252.66L552 1252.67C542.8 1253.6 542.667 1253.73 542.667 1257.33C542.667 1260.67 542.133 1261.2 538.4 1261.6C534.533 1262 534 1262.53 533.6 1266.27L533.2 1270.67H524.533H516V1275.33C516 1279.73 515.733 1280 511.333 1280C507.067 1280 506.667 1280.27 506.667 1284C506.667 1287.86 506.534 1287.87 498.441 1288.26L498.4 1288.27C493.227 1288.51 491.24 1288.61 490.383 1289.64C489.848 1290.28 489.754 1291.29 489.6 1292.93C489.2 1296.93 488.8 1297.33 484.533 1297.33C480.267 1297.33 480 1297.6 480 1302V1306.67H471.333H462.667V1310.67C462.667 1314.4 462.267 1314.67 458 1314.67C453.6 1314.67 453.333 1314.93 453.333 1319.33V1323.87L444.4 1324.27L435.333 1324.67L434.933 1328.93C434.533 1332.93 434.267 1333.07 426.533 1334C418.933 1334.93 418.667 1335.07 418.667 1338.8C418.667 1342.4 418.267 1342.67 413.333 1342.67C408.267 1342.67 408 1342.93 408 1346.67C408 1350.27 407.6 1350.67 404 1350.67H400V1266V1181.33H404.667H409.333V1122.67V1080.13C386.758 1058.41 366.115 1034.66 347.691 1009.18L346.667 1009.07V1007.75C325.33 978.031 307.004 945.96 292.139 912H292V911.682C289.354 905.625 286.817 899.508 284.394 893.333H284.133L284.111 892.613C280.757 884.029 277.62 875.335 274.707 866.537L274.667 866.533V866.415C272.652 860.326 270.746 854.187 268.949 848H265.333V834.925C262.657 824.735 260.277 814.423 258.202 804H256V792.242C254.592 784.223 253.365 776.141 252.322 768H252H248V700V692V616H252H254.62C255.059 613.245 255.519 610.498 256 607.758V598V580H260.667H261.646C262.805 574.997 264.034 570.022 265.333 565.075V562V544H270H271.342C272.415 540.513 273.523 537.041 274.667 533.585V526.8L277.037 526.585C279.198 520.348 281.473 514.164 283.858 508.037L284.133 498.667H287.61C289.038 495.198 290.501 491.748 292 488.318V481.333H295.112C297.127 476.9 299.201 472.499 301.333 468.133V461.333H304.715C311.873 447.199 319.646 433.436 328 420.079V417.333H329.729C340.273 400.703 351.721 384.713 364.001 369.433C364 369.232 364 369.022 364 368.8C364 364.261 364.126 364.011 368.428 364.001C388.846 339.277 411.473 316.477 436.003 295.911C436.039 292.138 436.445 292.002 440.724 292C450.871 283.693 461.334 275.764 472.092 268.235C472.657 265.563 473.438 265.35 476.279 265.334C480.585 262.383 484.937 259.495 489.333 256.672V256H490.383C493.132 254.245 495.898 252.515 498.681 250.81C498.71 250.07 498.802 249.531 499.088 249.131C499.611 248.401 500.781 248.134 503.402 247.953C508.192 245.089 513.031 242.3 517.918 239.589C518.22 239.215 518.638 238.989 519.246 238.855C521.706 237.499 524.178 236.163 526.662 234.847C526.665 234.583 526.667 234.301 526.667 234V229.333H535.333H537.365C539.568 228.231 541.78 227.144 544 226.072V224.667V220H557.043C567.625 215.252 578.393 210.851 589.333 206.81V202.667H600.981C609.012 199.918 617.131 197.363 625.333 195.005V193.333H631.285C637.697 191.574 644.159 189.935 650.667 188.42V185.333L665.241 185.249C681.457 181.968 697.944 179.448 714.667 177.728V176H735.64C746.342 175.337 757.132 175 768 175C778.868 175 789.658 175.337 800.36 176H822.667V177.866C839.075 179.597 855.256 182.098 871.174 185.333H893.333V189.333V190.351C897.144 191.303 900.938 192.297 904.715 193.333H912V195.39C919.748 197.64 927.422 200.067 935.017 202.666C935.168 202.666 935.318 202.667 935.467 202.667H946.533L946.931 206.908C951.279 208.516 955.599 210.182 959.891 211.903C963.011 212.087 964.342 212.329 964.91 213.119C965.097 213.379 965.201 213.697 965.259 214.092C969.859 215.997 974.425 217.967 978.957 220H992V224.667V226.072C994.22 227.144 996.432 228.231 998.635 229.333H1001.33H1010.67V234V235.553C1012.59 236.579 1014.5 237.617 1016.41 238.667H1019.33H1028V243.333C1028 244.092 1028.01 244.728 1028.04 245.261C1029.59 246.166 1031.14 247.079 1032.68 248C1036.42 248 1037.18 248.209 1037.31 250.805C1040.1 252.511 1042.87 254.243 1045.62 256H1046H1054.67V260.667V261.914C1056.36 263.044 1058.04 264.184 1059.72 265.333H1064H1073.33V273.867V274.989C1077.18 277.809 1080.98 280.68 1084.74 283.602C1090.56 284.22 1090.67 284.735 1090.67 288.133C1090.67 288.18 1090.67 288.225 1090.67 288.27C1092.21 289.505 1093.75 290.748 1095.28 292C1095.29 292 1095.31 292 1095.33 292C1099.47 292 1099.95 292.235 1100 295.911C1102.14 297.712 1104.28 299.53 1106.4 301.365C1108.51 301.476 1109.11 301.953 1109.27 303.876C1111.89 306.178 1114.49 308.505 1117.06 310.858C1117.87 311.049 1118.28 311.426 1118.48 312.161C1124.08 317.32 1129.56 322.601 1134.93 328H1135.87H1143.73L1144.67 336.533C1144.72 337.138 1144.78 337.7 1144.83 338.223C1147.24 340.782 1149.63 343.366 1151.99 345.974C1153.25 346.332 1153.79 346.955 1154.11 348.333C1155.98 350.433 1157.85 352.548 1159.69 354.679C1162.13 354.759 1162.58 355.303 1162.65 358.134C1164.31 360.077 1165.95 362.032 1167.57 364C1171.74 364.011 1172 364.348 1172 368.667C1172 368.94 1172 369.198 1172 369.44C1173.04 370.73 1174.07 372.025 1175.1 373.325C1175.33 373.331 1175.59 373.333 1175.87 373.333C1179.33 373.333 1179.87 373.867 1180.27 377.6C1180.67 381.467 1181.2 382 1184.93 382.4C1186.58 382.555 1187.6 382.65 1188.24 383.186C1189.26 384.037 1189.35 385.998 1189.6 391.067C1189.63 391.664 1189.66 392.218 1189.68 392.732C1191.35 395.06 1193 397.401 1194.63 399.757C1198.28 400.151 1198.67 400.618 1198.67 404.8C1198.67 405.12 1198.67 405.417 1198.67 405.693C1199.47 406.879 1200.26 408.068 1201.05 409.261C1201.65 409.321 1202.4 409.333 1203.33 409.333H1208V418V420.079C1209.37 422.264 1210.72 424.46 1212.05 426.667C1215.74 426.671 1216 427.087 1216 431.333C1216 432.154 1216.01 432.831 1216.05 433.389C1216.51 434.172 1216.97 434.957 1217.42 435.744C1218.12 435.968 1219.14 436 1220.67 436H1225.33V445.333V449.93C1226.18 451.504 1227.02 453.083 1227.85 454.667H1230H1234.67V461.2C1234.67 463.26 1234.81 466.121 1235.01 468.83C1236.81 472.529 1238.56 476.253 1240.28 480C1243.74 480.012 1244 480.468 1244 485.333C1244 486.825 1244.02 487.903 1244.16 488.68C1244.36 489.135 1244.55 489.591 1244.75 490.046C1245.3 490.586 1246.25 490.667 1247.87 490.667H1251.73L1252.67 508L1252.75 509.616C1254.76 514.82 1256.69 520.065 1258.53 525.348C1261.2 525.459 1261.24 526.396 1261.6 534.224L1261.6 534.267L1261.61 534.413C1262.61 537.451 1263.58 540.501 1264.52 543.563L1266.4 543.733L1270.67 544.133V562.133V565.075C1271.97 570.022 1273.2 574.997 1274.35 580H1275.33H1280V598V607.758C1280.48 610.498 1280.94 613.245 1281.38 616H1284H1288V696V700ZM610.333 480.667V476V471.333H533.667H457V682.667V894H538.333H619.667V890V886H633H646.333V881.333V876.667H655.667H665V872C665 867.6 665.267 867.333 669.667 867.333C673.933 867.333 674.333 867.067 674.333 863.467C674.333 860 674.867 859.467 678.733 859.067C682.467 858.667 683 858.133 683.4 854.267C683.8 850.533 684.333 850 687.8 850C691.4 850 691.667 849.6 691.667 845.333C691.667 840.933 691.933 840.667 696.333 840.667C700.733 840.667 701 840.4 701 836C701 831.6 701.267 831.333 705.667 831.333H710.333V809.333V787.333H714.333H718.333V768.667V750H714.333H710.333V738.8C710.333 732.667 709.933 724.933 709.533 721.467C708.733 715.733 708.333 715.333 704.867 715.333C701.267 715.333 701 714.933 701 710C701 704.8 700.867 704.667 696.333 704.667C691.933 704.667 691.667 704.4 691.667 700C691.667 695.733 691.4 695.333 687.667 695.333C684.067 695.333 683.667 694.933 683.667 691.333C683.667 687.6 683.4 687.333 678.333 687.333C673.267 687.333 673 687.067 673 683.467C673 679.6 672.867 679.467 664.333 678.667L655.667 677.733V673.2C655.667 669.067 655.267 668.667 651.667 668.667C648.067 668.667 647.667 668.267 647.667 664.667V660.667H656.333H665V656C665 651.6 665.267 651.333 669.667 651.333C674.067 651.333 674.333 651.067 674.333 646.667C674.333 642.4 674.6 642 678.2 642C682.067 642 682.2 641.867 683 633.333C683.933 624.933 684.067 624.667 687.8 624.667H691.667V615.333V606H695.533C699 606 699.4 605.6 700.2 599.867C701.267 591.867 701.267 558.8 700.2 550.8C699.4 545.067 699 544.667 695.533 544.667H691.667V535.333V526H687.667C683.933 526 683.667 525.6 683.667 521.333C683.667 516.933 683.4 516.667 679 516.667C674.6 516.667 674.333 516.4 674.333 512C674.333 507.6 674.067 507.333 669.667 507.333C665.267 507.333 665 507.067 665 502.667C665 498.267 664.733 498 660.333 498C655.933 498 655.667 497.733 655.667 493.333V488.667H646.333H637V484.667V480.667H623.667H610.333ZM1050.33 476.8C1050.33 473.333 1049.93 472.933 1044.2 472.133C1035.93 471.067 917.667 471.067 916.6 472.267C916.067 472.667 915.667 474.8 915.667 476.933V480.667H906.333H897V484.667C897 488.533 896.867 488.667 890.467 488.667C887 488.667 881.267 489.067 877.8 489.467C872.2 490.267 871.667 490.667 871.667 494.133C871.667 497.467 871.133 497.867 866.733 498.267C862.067 498.667 861.667 499.067 861.267 502.933L860.867 507.333H852.2H843.667V512C843.667 516.4 843.4 516.667 839 516.667C834.733 516.667 834.333 516.933 834.333 520.533C834.333 524 833.8 524.533 830.067 524.933C826.2 525.333 825.667 525.867 825.267 529.6C824.867 533.467 824.333 534 820.867 534C817.267 534 817 534.4 817 538.667C817 543.067 816.733 543.333 812.333 543.333C807.933 543.333 807.667 543.6 807.667 548C807.667 552.4 807.4 552.667 803 552.667H798.333V561.333V570H794.467C790.614 570 790.6 570.132 789.676 579.237L789.667 579.333L789.657 579.429C788.733 588.534 788.72 588.667 784.867 588.667H781V601.867V615.2L776.733 615.6L772.333 616L771.933 628.933L771.533 642H767.8C764.2 642 763.933 642.4 763.133 648.933C762.067 658.133 762.067 725.867 763.133 734.933C763.933 741.6 764.2 742 767.8 742H771.667V755.333V768.667H776.333H781V782V795.333H785C788.733 795.333 789 795.733 789 800C789 804.4 789.267 804.667 793.667 804.667H798.333V811.867C798.333 815.733 798.733 821.733 799.133 825.2L800.067 831.333H808.467H817V840.667V850H821.667C825.933 850 826.333 850.267 826.333 853.867C826.333 857.333 826.867 857.867 830.733 858.267C834.467 858.667 835 859.2 835.4 862.933L835.8 867.333H844.467H853V872V876.667H861.667C867.139 876.667 869.156 876.667 869.899 877.64C870.333 878.208 870.333 879.108 870.333 880.533C870.333 884.133 870.733 884.4 877.4 885.2C881.133 885.6 887.133 886 890.733 886C896.867 886 897 886.133 897 890V894H969.667H1042.33V890C1042.33 886.133 1042.47 886 1048.73 886C1052.2 886 1058.2 885.6 1062.07 885.2C1068.6 884.4 1069 884.133 1069 880.533C1069 877.067 1069.4 876.667 1073.67 876.667H1078.33V849.333V822H1069H1059.67V825.867C1059.67 829.467 1059.27 829.733 1052.73 830.533C1048.87 830.933 1042.87 831.333 1039.4 831.333C1033.13 831.333 1033 831.467 1033 835.333V839.333H1023.67H1014.33V844V848.667H974.333H934.333V844V839.333H921H907.667V835.467C907.667 831.613 907.534 831.6 898.429 830.676L898.333 830.667L898.237 830.657C889.132 829.733 889 829.72 889 825.867C889 822.4 888.6 822 884.333 822C879.933 822 879.667 821.733 879.667 817.333C879.667 813.067 879.4 812.667 875.667 812.667C871.933 812.667 871.667 812.267 871.667 808C871.667 803.6 871.4 803.333 867 803.333C862.733 803.333 862.333 803.067 862.333 799.333C862.333 795.733 861.933 795.333 858.333 795.333C854.6 795.333 854.333 794.933 854.333 790.667C854.333 786.267 854.067 786 849.667 786H845.133L844.733 776.933L844.333 768L840.067 767.6L835.667 767.2V758.533V750H831H826.333V691.333V632.667H830.2C834.067 632.667 834.2 632.533 835 624C835.933 615.6 836.067 615.333 839.667 615.333C843 615.333 843.4 614.8 844.2 609.2C844.6 605.733 845 599.733 845 595.867V588.667H849.667C853.933 588.667 854.333 588.4 854.333 584.667C854.333 581.067 854.733 580.667 858.333 580.667C862.067 580.667 862.333 580.267 862.333 576C862.333 571.6 862.6 571.333 867 571.333C871.4 571.333 871.667 571.067 871.667 566.667C871.667 562.4 871.933 562 875.667 562C879.4 562 879.667 561.6 879.667 557.333C879.667 552.933 879.933 552.667 884.333 552.667C888.6 552.667 889 552.267 889 548.8C889 544.947 889.132 544.933 898.237 544.01L898.333 544L898.429 543.99C907.534 543.067 907.667 543.053 907.667 539.2V535.333H916.333H925V530.667V526H943H961V522V518H978.333H995.667V522V526H1013.67H1031.67V530.667V535.333H1045.67H1059.67V540V544.667H1069H1078.33V516.667V488.667H1073.67C1069.4 488.667 1069 488.4 1069 484.667V480.667H1059.67H1050.33V476.8ZM513 588.667V651.333H552.333H591.666V646.667V642H601H610.333V637.333C610.333 633.067 610.6 632.667 614.2 632.667C617.667 632.667 618.2 632.133 618.6 628.267C619 624.533 619.533 624 623.266 623.6C624.917 623.445 625.929 623.35 626.573 622.814C627.593 621.963 627.688 620.002 627.933 614.933C628.176 609.907 628.272 607.937 629.298 607.075C629.96 606.519 631.008 606.423 632.733 606.267L637 605.867V583.867V562H632.333H627.667V553.467V545.067L619.667 544.133C611.933 543.2 611.667 543.067 611.667 539.333V535.333H599.8C593.4 535.333 585.266 534.933 581.8 534.533C576.067 533.733 575.666 533.333 575.666 529.867V526H544.333H513V588.667ZM513 839.333V772.667V706H561.666H610.333V709.867C610.333 713.333 610.733 713.733 616.467 714.533C619.933 714.933 625.933 715.333 629.8 715.333C636.867 715.333 637 715.333 637 719.333C637 723.067 637.4 723.333 641.666 723.333H646.333V732.667V742H650.2H653.933L654.867 757.333C655.4 765.733 655.4 779.6 654.867 788L653.933 803.333H650.2C646.6 803.333 646.333 803.733 646.333 808.667C646.333 813.733 646.066 814 642.333 814C638.733 814 638.333 814.4 638.333 817.867C638.333 821.467 637.933 821.867 633.4 822.267C629 822.667 628.333 823.2 627.933 826.133C627.533 829.2 626.733 829.733 621.4 830.533C618.066 830.933 612.333 831.333 608.867 831.333C602.467 831.333 602.333 831.467 602.333 835.333V839.333H557.666H513Z" fill="#EE5D82"/>
</svg>
