<svg width="1024" height="1024" viewBox="0 0 1024 1024" fill="none" xmlns="http://www.w3.org/2000/svg">
<g clip-path="url(#clip0_28_443)">
<path d="M0 1004C0 1015.05 8.9543 1024 20 1024H1004C1015.05 1024 1024 1015.05 1024 1004V20C1024 8.95433 1015.05 2.58684e-05 1004 2.58684e-05H20C8.9543 2.58684e-05 0 8.95433 0 20V1004Z" fill="white"/>
<g filter="url(#filter0_d_28_443)">
<path d="M898.048 512C898.048 725.209 725.209 898.048 512 898.048C298.793 898.048 125.953 725.209 125.953 512C125.953 298.793 298.793 125.952 512 125.952C725.209 125.952 898.048 298.793 898.048 512Z" fill="#E63246"/>
</g>
<path d="M356 319.001C335.81 323.112 332.536 326.443 328.499 347C324.461 326.443 321.19 323.112 301 319.001C321.19 314.89 324.461 311.557 328.499 291C332.536 311.557 335.81 314.89 356 319.001Z" fill="white"/>
<path d="M405 341.5C393.619 343.774 391.774 345.619 389.5 357C387.226 345.619 385.381 343.774 374 341.5C385.381 339.226 387.226 337.381 389.5 326C391.774 337.381 393.619 339.226 405 341.5Z" fill="white"/>
<path d="M794 604.5C782.619 606.774 780.774 608.619 778.5 620C776.226 608.619 774.381 606.774 763 604.5C774.381 602.226 776.226 600.381 778.5 589C780.774 600.381 782.619 602.226 794 604.5Z" fill="white"/>
<path d="M714 290C705.19 291.761 703.761 293.19 702 302C700.239 293.19 698.81 291.761 690 290C698.81 288.239 700.239 286.81 702 278C703.761 286.81 705.19 288.239 714 290Z" fill="white"/>
<path d="M456 824.501C445.355 826.63 443.628 828.355 441.5 839C439.372 828.355 437.645 826.63 427 824.501C437.645 822.373 439.372 820.645 441.5 810C443.628 820.645 445.355 822.373 456 824.501Z" fill="white"/>
<path d="M544 830.001C523.809 834.112 520.537 837.443 516.5 858C512.463 837.443 509.191 834.112 489 830.001C509.191 825.89 512.463 822.557 516.5 802C520.537 822.557 523.809 825.89 544 830.001Z" fill="white"/>
<path d="M270 650.5C253.848 653.803 251.23 656.481 248 673C244.77 656.481 242.152 653.803 226 650.5C242.152 647.197 244.77 644.519 248 628C251.23 644.519 253.848 647.197 270 650.5Z" fill="white"/>
<path d="M670 308.501C653.847 311.805 651.229 314.483 647.999 331C644.769 314.483 642.15 311.805 626 308.501C642.15 305.198 644.769 302.52 647.999 286C651.229 302.52 653.847 305.198 670 308.501Z" fill="white"/>
<path d="M780 670.501C756.138 675.271 752.271 679.14 747.499 703C742.729 679.14 738.86 675.271 715 670.501C738.86 665.729 742.729 661.862 747.499 638C752.271 661.862 756.138 665.729 780 670.501Z" fill="white"/>
<path d="M539 262.5C512.57 267.858 508.285 272.202 503 299C497.715 272.202 493.43 267.858 467 262.5C493.43 257.142 497.715 252.798 503 226C508.285 252.798 512.57 257.142 539 262.5Z" fill="white"/>
<path d="M139.638 619.786C138.205 622.489 134.809 623.457 132.167 621.913L37.028 566.354V566.354C37.0197 566.349 37.0098 566.347 37.0001 566.348C35.773 566.568 34.5156 566.692 33.2313 566.692C32.912 566.692 32.5921 566.684 32.2703 566.669C23.4602 566.24 16.1944 560.441 13.4551 552.595C13.4515 552.585 13.4445 552.576 13.4352 552.571V552.571L9.9162 550.516C3.77545 546.931 0 540.355 0 533.245V281.285C0 265.709 17.0187 256.111 30.3479 264.17L148.194 335.421V335.421C157.267 339.803 161.014 350.704 157.042 359.964C137.03 406.622 125.953 458.011 125.953 512C125.953 547.954 130.87 582.768 140.065 615.791C140.437 617.129 140.288 618.559 139.638 619.786V619.786ZM925.37 580.415C910.316 587.344 893.471 573.906 895.402 557.447C897.15 542.542 898.048 527.377 898.048 512C898.048 504.356 897.826 496.768 897.388 489.236C896.978 482.189 901.12 475.614 907.75 473.188V473.188C915.885 470.211 920.037 461.176 916.997 453.064L913.097 442.653L875.494 342.298C871.601 331.911 876.907 320.34 887.317 316.511L889.467 315.72L995.363 265.02C1008.64 258.665 1024 268.341 1024 283.059V522.208C1024 530.017 1019.46 537.111 1012.36 540.376L925.37 580.415Z" fill="#EFACCE"/>
<path d="M481.798 759.546C476.627 759.546 471.79 758.19 468.273 756.855C468.05 756.777 467.845 756.714 467.616 756.632C465.934 756.021 464.45 755.302 463.108 754.522C462.88 754.398 462.712 754.303 462.678 754.284C462.675 754.282 462.674 754.278 462.677 754.275V754.275C462.68 754.273 462.679 754.268 462.676 754.267C461.923 753.809 461.204 753.339 460.554 752.845C459.38 751.955 458.365 751.015 457.488 750.061C453.34 745.551 445.815 740.987 439.687 740.987V740.987C433.963 740.987 427.026 739.717 420.624 735.167C419.711 734.515 418.873 733.866 418.099 733.205C417.535 732.726 417.006 732.247 416.51 731.768C410.986 726.438 398.326 718.828 390.65 718.828V718.828C388.514 718.828 386.308 718.635 384.098 718.164C371.606 715.51 363.885 702.859 366.828 690.432C366.84 690.382 366.852 690.331 366.864 690.28C367.467 687.746 363.224 684.422 360.643 684.771V684.771C359.84 684.88 359.008 684.937 358.154 684.937C355.244 684.937 352.057 684.276 348.731 682.732C335.047 676.389 322.162 651.83 331.61 643.938C331.953 643.651 331.885 643.748 332.223 643.455V643.455C334.281 641.677 337.773 643.149 339.639 645.127C342.45 648.107 345.57 650.546 348.731 652.012C352.057 653.556 355.244 654.217 358.154 654.217C359.008 654.217 359.84 654.16 360.643 654.051V654.051C363.23 653.701 367.467 657.027 366.862 659.567C366.85 659.616 366.839 659.664 366.828 659.712C363.885 672.139 371.606 684.79 384.098 687.446C386.308 687.915 388.512 688.108 390.65 688.108C400.835 688.108 409.459 683.698 409.459 683.698C409.459 683.698 409.264 684.519 409.264 685.91C409.266 689.269 410.397 695.958 418.099 702.482C418.873 703.146 419.711 703.795 420.624 704.447C427.026 708.997 433.963 710.267 439.687 710.267V710.267C445.815 710.267 453.34 714.831 457.488 719.341C458.365 720.295 459.38 721.235 460.554 722.125C462.455 723.569 464.783 724.886 467.616 725.912C467.864 726.002 468.109 726.088 468.351 726.174C471.859 727.497 476.662 728.826 481.788 728.826C485.831 728.826 490.072 728.001 494.045 725.695C497.781 723.525 501.219 721.495 504.252 719.685C510.056 716.221 517.134 716.048 523.572 718.105C529.499 719.999 535.556 721.021 542.355 721.021C542.532 721.021 542.708 721.021 542.884 721.019C551.115 720.957 556.417 717.069 559.798 712.504C559.798 712.503 559.798 712.503 559.798 712.503V712.503C559.799 712.503 559.802 712.504 559.802 712.503C561.963 709.592 563.341 706.411 564.203 703.788C564.993 701.386 568.136 700.135 570.312 701.422C571.986 702.412 573.905 703.388 575.734 703.959C577.606 704.553 581.169 705.403 585.497 705.403C592.202 705.403 600.742 703.363 607.662 695.173C608.85 693.76 609.833 692.388 610.673 691.036C614.865 684.27 615.037 678.224 614.441 674.333C614.028 671.629 613.247 669.966 613.176 669.816C613.175 669.815 613.175 669.814 613.175 669.814L613.172 669.81C613.172 669.809 613.171 669.808 613.171 669.807V669.807C613.171 669.803 613.175 669.8 613.179 669.801C614.685 670.295 617.059 670.614 619.934 670.614C622.491 670.614 625.443 670.362 628.531 669.758C640.072 667.503 657.686 671.767 653.087 682.59V682.59L652.925 682.971C646.627 697.328 630.108 701.34 619.909 701.34C617.046 701.34 614.68 701.024 613.178 700.53C613.176 700.529 613.173 700.532 613.175 700.535V700.535C613.175 700.535 613.175 700.535 613.175 700.535C613.341 700.886 617.768 710.287 610.669 721.76C609.839 723.11 608.852 724.49 607.67 725.885C600.746 734.085 592.2 736.123 585.49 736.123C581.167 736.123 577.604 735.277 575.73 734.687V734.687C570.826 733.145 564.302 735.496 561.845 740.011C561.257 741.092 560.579 742.176 559.8 743.225C556.419 747.78 551.119 751.673 542.88 751.737C542.702 751.739 542.523 751.739 542.345 751.739C535.565 751.739 529.517 750.707 523.596 748.81C517.16 746.746 510.083 746.923 504.28 750.387C501.243 752.201 497.796 754.236 494.045 756.415C490.072 758.721 485.835 759.546 481.798 759.546ZM674.693 655.563C669.689 655.563 663.8 654.334 656.874 651.308C655.136 650.549 654.363 648.562 654.807 646.718V646.718C655.528 643.811 655.825 640.987 655.825 638.31C655.823 626.711 650.269 617.882 649.769 617.083V617.083C649.759 617.067 649.777 617.049 649.793 617.058C659.876 622.689 668.055 624.845 674.685 624.845C685.883 624.845 692.66 618.693 696.709 612.741V612.741C697.4 611.726 699.021 611.763 699.521 612.885L700.512 615.11C700.515 615.116 700.519 615.121 700.524 615.126V615.126C700.528 615.131 700.532 615.136 700.535 615.143C701.208 616.668 701.598 618.309 701.678 619.977L701.696 620.294C701.841 625.467 701.501 636.424 696.711 643.465C692.66 649.415 685.888 655.563 674.693 655.563ZM373.832 639.515C373.685 639.823 373.206 639.759 373.147 639.423V639.423C373.092 639.107 373.466 638.876 373.714 639.08C373.723 639.088 373.733 639.096 373.743 639.104C373.864 639.203 373.9 639.374 373.832 639.515V639.515ZM331.874 613.006C327.749 616.181 317.236 624.071 313.137 620.863C308.088 616.912 303.521 613.402 299.815 610.655C299.428 610.368 299.017 610.121 298.582 609.913L281.885 601.915L264.583 593.627C259.974 591.419 254.451 593.417 252.32 598.062V598.062C250.221 602.641 244.814 604.659 240.227 602.577L193.042 581.151L180.292 575.363C172.542 571.845 163.393 574.965 159.407 582.485V582.485C152.613 595.305 134.215 593.142 131.72 578.849C127.93 557.135 125.953 534.797 125.953 512C125.953 458.608 136.786 407.759 156.382 361.513C160.683 351.364 172.668 347.24 182.595 352.034L202.71 361.748C213.042 366.737 217.068 379.377 211.523 389.422L184.816 437.811L141.83 499.249C140.497 501.154 141.192 503.8 143.289 504.804V504.804C145.242 505.74 146.006 508.125 144.959 510.021L141.874 515.609C139.115 520.608 141.2 526.897 146.399 529.257L193.042 550.431L240.228 571.857C244.814 573.939 250.221 571.921 252.32 567.342V567.342C254.451 562.697 259.974 560.699 264.583 562.907L281.885 571.195L297.527 578.688C298.663 579.232 299.746 579.881 300.756 580.635C306.125 584.644 313.114 590.089 320.686 596.093C326.393 600.621 332.43 605.466 338.355 610.251C338.666 610.502 338.463 611.023 338.063 611.023V611.023C334.902 611.023 333.119 612.061 332.453 612.553C332.239 612.71 332.084 612.844 331.874 613.006V613.006ZM883.406 599.73C877.451 602.47 870.412 599.702 867.919 593.639L848.548 546.529V546.529C848.546 546.525 848.54 546.522 848.535 546.524L824.951 554.574L771.6 572.784C767.015 574.349 762.027 571.911 760.445 567.331V567.331C758.838 562.681 753.73 560.253 749.109 561.942L739.7 565.383C738.624 565.776 737.667 566.442 736.913 567.304V567.304C736.438 567.845 735.939 568.359 735.455 568.889C734.829 569.578 734.208 570.266 733.569 570.937C732.85 571.691 732.119 572.422 731.386 573.155C730.776 573.766 730.171 574.382 729.553 574.978C728.762 575.742 727.968 576.475 727.169 577.21C726.594 577.743 726.024 578.284 725.447 578.8C724.593 579.566 723.741 580.297 722.887 581.032C722.36 581.485 721.834 581.949 721.31 582.39C720.403 583.154 719.507 583.875 718.61 584.598C718.146 584.972 717.679 585.364 717.218 585.728C716.261 586.486 715.33 587.196 714.396 587.907C714.013 588.198 713.62 588.511 713.241 588.794C712.217 589.562 711.232 590.279 710.255 590.985C709.99 591.176 709.712 591.385 709.452 591.571C708.229 592.446 707.045 593.273 705.923 594.041V594.041C704.135 595.266 701.719 593.838 701.729 591.67C701.733 590.901 701.723 590.198 701.706 589.578L701.686 589.251C701.604 587.597 701.217 585.943 700.545 584.431C700.541 584.422 700.535 584.414 700.529 584.407V584.407C700.522 584.4 700.516 584.392 700.513 584.384L698.821 580.594V580.594C696.307 574.954 698.492 568.294 703.63 564.871C704.363 564.382 705.129 563.865 705.923 563.321C713.148 558.381 722.704 551.17 731.423 542.437C733.606 540.252 735.736 537.971 737.765 535.607V535.607C737.958 535.382 738.204 535.21 738.483 535.108L749.109 531.222C753.73 529.533 758.838 531.961 760.445 536.611V536.611C762.027 541.191 767.015 543.629 771.6 542.064L824.951 523.854L869.704 508.578C874.971 506.78 877.589 500.876 875.386 495.765V495.765C873.215 490.729 875.723 484.904 880.873 483.021L882.644 482.373C889.64 479.814 897.161 484.589 897.54 492.028C897.877 498.642 898.048 505.3 898.048 512C898.048 539.356 895.205 566.038 889.793 591.784C889.055 595.297 886.668 598.229 883.406 599.73V599.73Z" fill="#E20F27"/>
<path d="M476.678 706.229C469.296 715.363 472.335 729.671 484.041 728.738C487.385 728.471 490.805 727.575 494.045 725.694C495.338 724.944 496.595 724.21 497.812 723.496C507.018 718.095 506.866 704.941 497.66 699.541V699.541C491.585 695.978 483.818 697.393 479.392 702.871L476.678 706.229Z" fill="#FAB29A"/>
<path d="M481.788 728.826C476.662 728.826 471.859 727.497 468.351 726.174C473.449 727.96 477.362 728.642 480.43 728.642C483.659 728.642 485.949 727.885 487.693 726.867C489.628 725.737 490.76 723.68 491.444 721.547C492.505 718.243 494.215 712.841 495.847 707.363C496.24 706.045 497.774 705.445 498.954 706.15V706.15C501.862 707.871 504.627 709.468 507.331 710.922V710.922C509.96 712.344 510.145 716.144 507.584 717.687C503.835 719.946 499.227 722.686 494.045 725.695C490.072 728.001 485.831 728.826 481.788 728.826Z" fill="#E18971"/>
<path d="M696.709 614.277C690.263 623.752 676.906 633.737 649.794 618.594C649.777 618.585 649.758 618.603 649.769 618.619V618.619C650.383 619.602 658.657 632.75 654.807 648.253C654.397 649.953 653.824 651.674 653.086 653.414L652.923 653.783C644.86 672.18 620.049 673.585 613.187 671.34C613.178 671.337 613.171 671.343 613.171 671.352V671.352C613.171 671.354 613.171 671.355 613.172 671.356C613.347 671.729 617.769 681.119 610.672 692.572C609.833 693.924 608.85 695.296 607.662 696.709C596.275 710.185 580.505 707.011 575.734 705.495V705.495C570.822 703.963 564.293 706.316 561.834 710.835C561.249 711.911 560.575 712.99 559.8 714.035C556.421 718.602 551.117 722.493 542.884 722.555C529.674 722.657 519.291 718.93 507.33 712.458C504.627 711.004 501.862 709.407 498.954 707.686C495.206 705.454 491.233 703.017 486.953 700.395C466.621 687.951 392.897 651.345 379.547 644.736C378.156 644.047 376.871 643.215 375.674 642.227C370.99 638.364 357.721 627.446 342.978 615.526C327.873 603.29 311.225 589.976 300.742 582.157C299.737 581.407 298.664 580.765 297.534 580.223L281.887 572.723L231.26 548.475L207.503 537.088L160.552 514.606C149.414 509.273 145.723 495.22 152.802 485.102L223.693 383.781C229.154 375.975 239.362 373.105 248.091 376.92L279.327 390.574L337.326 415.908L365.722 428.326C369.664 430.05 374.058 430.457 378.25 429.485L450.375 412.774L461.013 410.274C466.247 409.044 471.756 409.973 476.297 412.852L532.193 448.287L681.388 542.898C685.727 545.649 688.841 549.966 690.084 554.952L693.948 570.461C694.232 571.598 694.614 572.708 695.092 573.778L700.512 585.92C700.516 585.928 700.522 585.936 700.528 585.943V585.943C700.535 585.95 700.541 585.958 700.545 585.967C701.217 587.478 701.604 589.132 701.686 590.787L701.706 591.114C701.849 596.275 701.501 607.232 696.709 614.277Z" fill="#E39F88"/>
<path d="M320.686 596.093C313.017 590.012 305.947 584.505 300.55 580.482C299.676 579.83 298.74 579.269 297.757 578.798L281.889 571.197C281.887 571.196 281.886 571.194 281.887 571.191V571.191C281.888 571.189 281.891 571.188 281.893 571.189L297.718 578.776C298.726 579.259 299.686 579.834 300.582 580.501C305.977 584.52 313.035 590.022 320.686 596.093Z" fill="#115579"/>
<path d="M498.952 706.146C498.184 705.69 497.406 705.223 496.619 704.747V704.745C497.406 705.219 498.184 705.683 498.952 706.14V706.146ZM379.623 629.526C368.576 620.1 358.085 616.274 350.339 614.805C345.753 612.311 342.147 611.318 339.399 611.08C333.14 606.028 326.728 600.881 320.686 596.093C312.379 589.502 304.773 583.582 299.233 579.502L281.889 571.187L289.204 550.492L318.587 564.359C318.587 564.359 354.972 595.009 389.222 622.471C385.532 623.88 382.196 626.223 379.623 629.526Z" fill="#E18971"/>
<path d="M289.204 550.492L265.234 539.179L324.938 408.965L337.32 414.376L289.204 550.492Z" fill="#E18971"/>
<path d="M281.886 571.192C281.885 571.194 281.883 571.195 281.881 571.194L256.199 558.89C256.198 558.889 256.197 558.888 256.197 558.886V558.886C256.198 558.884 256.2 558.883 256.202 558.884L281.886 571.187C281.887 571.187 281.887 571.187 281.887 571.187V571.187C281.888 571.187 281.888 571.188 281.888 571.189L281.886 571.192Z" fill="#0D3A4F"/>
<path d="M281.889 571.187H281.887L256.199 558.883L265.235 539.179L289.204 550.492L281.889 571.187Z" fill="#E18971"/>
<path d="M698.821 580.594L694.375 570.635C694.374 570.634 694.374 570.634 694.374 570.634V570.634C694.374 570.631 694.378 570.629 694.379 570.632L694.382 570.636C694.382 570.636 694.383 570.637 694.383 570.637L698.821 580.594Z" fill="#115579"/>
<path d="M700.659 584.712C701.2 586.018 699.66 586.69 698.725 585.628C694.949 581.339 689.697 576.537 682.41 571.636C665.123 560.011 583.959 514.802 542.353 491.764C516.944 481.047 495.979 473.416 489.13 473.416C488.387 473.416 487.809 473.506 487.41 473.692C477.172 478.48 452.667 518.726 423.651 521.173C422.173 521.298 420.749 521.357 419.373 521.357C411.04 521.357 404.554 519.191 399.595 516.266C397.119 514.806 398.726 511.351 401.601 511.351V511.351C401.668 511.351 401.738 511.351 401.805 511.351C403.565 511.343 405.414 511.232 407.351 510.994C422.73 509.155 443.212 499.442 462.883 468.367C463.458 467.452 464.134 466.602 464.886 465.842C465.168 465.555 465.467 465.285 465.771 465.023L465.965 464.855C466.272 464.599 466.586 464.353 466.911 464.122L466.997 464.065C467.309 463.847 467.628 463.643 467.956 463.45L468.134 463.344C468.499 463.135 468.871 462.938 469.256 462.76C469.269 462.754 469.283 462.748 469.297 462.739C469.51 462.639 469.727 462.543 469.948 462.453C470.204 462.348 470.463 462.25 470.725 462.158L472.193 461.652L497.898 452.782C498.188 452.684 498.477 452.596 498.768 452.514L499.006 452.454C499.208 452.401 499.413 452.35 499.618 452.305C500.681 452.073 501.76 451.959 502.837 451.959C505.549 451.959 508.242 452.686 510.622 454.111L599.933 507.65L612.811 515.367L654.938 540.625L677.186 553.961C682.383 557.07 686.963 561.121 690.69 565.899L694.367 570.615C694.371 570.62 694.373 570.625 694.374 570.63V570.63C694.374 570.633 694.375 570.636 694.376 570.638L698.821 580.594L700.513 584.392C700.515 584.398 700.519 584.403 700.524 584.407V584.407C700.528 584.411 700.532 584.416 700.535 584.422C700.577 584.518 700.618 584.615 700.659 584.712Z" fill="#E18971"/>
<path d="M655.825 638.31C655.825 642.398 651.207 644.193 647.85 641.86C631.456 630.47 609.076 615.227 596.869 606.863C593.155 604.319 590.114 601.666 587.627 599.007C577.744 588.442 590.509 579.845 602.762 587.538L649.665 616.982C649.707 617.008 649.742 617.042 649.769 617.083V617.083C650.269 617.881 655.823 626.71 655.825 638.31V638.31Z" fill="#CA6953"/>
<path d="M614.441 674.333C614.026 671.63 613.24 669.966 613.171 669.819C613.171 669.819 613.171 669.818 613.171 669.818V669.816C613.171 669.814 613.174 669.813 613.175 669.814V669.814C613.175 669.815 613.175 669.815 613.175 669.815C613.243 669.959 614.027 671.624 614.441 674.333Z" fill="#115579"/>
<path d="M614.441 674.333C615.876 683.773 604.082 686.599 596.17 681.255C586.454 674.693 575.836 667.511 568.334 662.413C567.833 662.073 567.345 661.723 566.871 661.366C553.856 651.554 568.844 640.111 582.385 649.183L613.169 669.806C613.169 669.807 613.169 669.807 613.169 669.807V669.807C613.171 669.808 613.171 669.81 613.171 669.811V669.815C613.171 669.818 613.171 669.819 613.172 669.821C613.248 669.981 614.027 671.643 614.441 674.333V674.333Z" fill="#CA6953"/>
<path d="M559.802 712.503C559.801 712.504 559.799 712.503 559.799 712.503V712.503C559.798 712.503 559.798 712.503 559.798 712.503C559.798 712.501 559.799 712.501 559.8 712.499C559.8 712.499 559.8 712.499 559.8 712.499C564.561 706.077 565.514 698.353 565.534 698.186C565.535 698.183 565.537 698.185 565.539 698.187V698.187C565.54 698.188 565.543 698.19 565.543 698.191C565.507 698.486 564.526 706.14 559.802 712.503Z" fill="#115579"/>
<path d="M559.8 712.5C559.798 712.501 559.796 712.502 559.794 712.501C549.71 706.498 535.059 697.448 525.775 690.233V690.233C515.219 682.031 524.893 674.047 536.387 680.871L565.541 698.181C565.542 698.181 565.543 698.182 565.543 698.184C565.543 698.184 565.543 698.185 565.543 698.185C565.543 698.187 565.538 698.187 565.537 698.185V698.185C565.535 698.184 565.535 698.183 565.534 698.185C565.521 698.299 564.577 706.055 559.8 712.499C559.8 712.499 559.8 712.499 559.8 712.5V712.5Z" fill="#CA6953"/>
<path d="M915.442 448.911C919.338 459.312 914.015 470.895 903.585 474.711L791.349 515.772L739.7 534.663C738.624 535.056 737.667 535.722 736.913 536.584V536.584C726.933 547.955 714.705 557.314 705.923 563.321C703.481 564.995 701.307 566.41 699.522 567.535C696.599 569.377 692.814 568.624 690.69 565.899V565.899C686.963 561.121 682.383 557.07 677.185 553.961L654.938 540.625L612.811 515.367L604.967 510.665L599.933 507.65L510.622 454.111C507.324 452.135 503.433 451.502 499.724 452.278C499.108 452.407 498.504 452.577 497.897 452.782L472.193 461.652L470.725 462.158C470.225 462.332 469.729 462.533 469.256 462.76C467.622 463.516 466.147 464.566 464.886 465.842C464.134 466.602 463.458 467.452 462.883 468.367C443.212 499.442 422.73 509.155 407.351 510.994C405.414 511.232 403.564 511.343 401.805 511.351C397.781 511.367 394.236 510.88 391.317 510.204C385.001 508.74 381.508 501.955 383.914 495.931L411.849 434.829C414.292 428.718 418.795 423.661 424.579 420.534L500.339 379.554C505.291 376.873 510.939 375.74 516.54 376.304L642.895 389.023C645.922 389.328 648.979 388.938 651.833 387.883L688.157 374.456L741.202 354.863L844.62 316.645C854.948 312.828 866.418 318.077 870.281 328.387L913.097 442.653L915.442 448.911Z" fill="#FAB29A"/>
<path d="M738.058 535.263L757.52 528.145V528.147L738.058 535.263ZM727.892 506.583L688.157 374.456L702.583 369.128L747.622 499.497C740.465 502.041 733.848 504.414 727.892 506.583Z" fill="#E18971"/>
<path d="M736.914 536.584L727.892 506.583C733.848 504.414 740.465 502.041 747.623 499.497L757.521 528.144L738.058 535.263C737.96 535.378 737.864 535.493 737.766 535.607C737.483 535.935 737.198 536.261 736.914 536.584Z" fill="#CA6953"/>
<path d="M328.589 401L248.523 575.623L193.042 550.431L136.757 524.88L231.061 354.025L270.256 372.906L328.589 401Z" fill="white"/>
<path d="M507.587 703.546C507.822 707.123 504.059 709.136 500.964 707.326V707.326C499.726 706.602 498.781 705.343 498.48 703.941L497.976 701.599C497.957 701.51 497.979 701.485 497.906 701.43V701.43C497.782 701.336 497.657 701.12 497.699 700.971C498.641 697.599 499.43 694.529 499.872 692.302V692.302C500.215 690.581 502.304 688.734 503.37 690.128C504.719 691.892 505.769 693.826 506.325 695.921C507.056 698.68 507.436 701.241 507.587 703.546Z" fill="#CA6953"/>
<path d="M498.525 704.151C498.687 704.909 497.876 705.499 497.211 705.101V705.101C496.866 704.894 496.698 704.476 496.81 704.089C497.061 703.224 497.307 702.366 497.543 701.526C497.584 701.379 497.812 701.358 497.933 701.451V701.451C497.975 701.482 497.952 701.488 497.963 701.539L498.525 704.151Z" fill="#E18971"/>
<path d="M466.967 678.633C466.846 678.727 466.678 678.733 466.552 678.646V678.646C466.413 678.549 466.365 678.366 466.438 678.213L468.785 673.327C469.025 672.621 469.242 671.906 469.435 671.183C470.911 665.664 479.258 660.964 481.487 666.224C482.394 668.365 483.163 670.717 483.725 673.294C483.841 673.828 483.346 674.291 482.81 674.183V674.183C481.735 673.966 480.625 673.847 479.484 673.847C475.601 673.847 471.367 675.208 466.967 678.633Z" fill="#CA6953"/>
<path d="M466.544 678.969C466.365 679.113 466.103 678.912 466.202 678.705V678.705C466.259 678.586 466.409 678.546 466.517 678.621C466.521 678.624 466.525 678.627 466.529 678.63C466.646 678.711 466.655 678.879 466.544 678.969V678.969Z" fill="#4F2A22"/>
<path d="M425.244 649.403C424.955 649.815 424.386 649.916 423.983 649.614V649.614C423.752 649.441 423.62 649.162 423.627 648.874C423.659 647.56 423.623 646.291 423.522 645.067C423.196 641.127 428.247 634.112 430.824 637.111V637.111C432.055 638.543 432.425 641.7 431.002 642.942C428.464 645.156 426.528 647.572 425.244 649.403Z" fill="#CA6953"/>
<path d="M423.387 652.36C423.466 651.649 423.527 650.949 423.568 650.261C423.591 649.871 424.043 649.659 424.356 649.893V649.893C424.562 650.047 424.61 650.335 424.47 650.551C423.753 651.657 423.387 652.36 423.387 652.36Z" fill="#4F2A22"/>
<path d="M373.95 639.273C373.949 639.273 373.948 639.273 373.947 639.272C373.634 639.014 373.303 638.742 372.953 638.454V638.454C372.951 638.452 372.954 638.45 372.956 638.452C373.306 638.739 373.638 639.011 373.949 639.27C373.95 639.27 373.951 639.272 373.95 639.273V639.273Z" fill="#0D3A4F"/>
<path d="M374.399 638.354C374.168 638.819 373.573 638.958 373.172 638.629V638.629C373.035 638.516 372.93 638.354 372.889 638.181C372.299 635.731 371.229 633.288 369.586 630.839C366.318 625.947 360.776 621.017 352.254 615.903V615.903C351.916 615.699 352.113 615.172 352.498 615.262C359.592 616.918 368.584 620.547 378.066 628.232C378.946 628.944 379.068 630.225 378.456 631.177V631.177C376.949 633.526 375.601 635.937 374.399 638.354Z" fill="#E18971"/>
<path d="M360.643 654.051C357.102 654.529 353.034 654.008 348.731 652.012C335.438 645.852 322.898 622.498 330.855 613.934C331.632 613.098 332.553 612.37 333.591 611.896C336.066 610.765 341.883 609.673 352.254 615.903C360.776 621.017 366.318 625.947 369.586 630.839C371.888 634.27 373.064 637.686 373.373 641.135C373.881 646.904 368.57 652.98 360.643 654.051Z" fill="#FAB29A"/>
<path d="M368.621 650.762C365.368 653.31 361.781 649.703 363.171 645.811C364.009 643.464 364.909 641.196 365.798 639.094C367.374 635.369 372.379 635.263 373.114 639.24V639.24C373.29 640.19 373.102 641.073 372.713 641.956C371.736 644.172 370.874 646.372 370.115 648.513C369.796 649.412 369.372 650.173 368.621 650.762V650.762Z" fill="#E18971"/>
<path d="M384.098 687.446C371.605 684.79 363.885 672.139 366.827 659.712C368.712 651.745 372.193 640.934 378.456 631.177C390.424 612.531 424.665 619.555 423.616 649.273C423.544 651.321 422.964 653.313 422.131 655.185L412.331 677.235C410.473 681.417 407.248 684.909 402.862 686.217C398.01 687.664 391.072 688.927 384.098 687.446Z" fill="#FAB29A"/>
<path d="M468.785 673.327L455.101 701.817C453.098 705.986 449.645 709.282 445.062 709.901C438.769 710.752 429.215 710.553 420.624 704.446C419.711 703.795 418.873 703.146 418.099 702.482C410.114 695.718 409.193 688.778 409.27 685.554C409.3 684.308 409.713 683.125 410.219 681.987L423.132 652.934C423.302 652.551 423.479 652.181 423.689 651.819C425.478 648.738 435.129 633.663 450.722 637.653C451.078 637.739 451.441 637.837 451.803 637.95C469.805 643.482 473.272 660.115 468.785 673.327Z" fill="#FAB29A"/>
<path d="M499.872 692.302C498.574 698.837 494.281 712.653 491.944 719.986C490.936 723.147 489.29 726.327 486.224 727.596C482.661 729.071 477.143 729.371 467.616 725.912C464.783 724.886 462.455 723.569 460.554 722.125C456.983 719.419 454.887 716.255 453.665 713.633C452.106 710.289 452.849 706.504 454.447 703.178L463.945 683.399C465.141 680.909 466.781 678.601 469.111 677.116C474.019 673.985 478.675 673.348 482.81 674.183C493.472 676.334 500.683 688.237 499.872 692.302Z" fill="#FAB29A"/>
<path d="M424.113 684.059C421.154 692.775 409.27 695.115 409.264 685.91V685.91C409.264 685.784 409.266 685.663 409.269 685.547C409.299 684.309 409.712 683.129 410.215 681.997L423.132 652.935C423.302 652.551 423.479 652.182 423.689 651.819C425.271 649.094 433.005 636.985 445.559 636.985V636.985C447.651 636.985 448.254 639.572 446.727 641.002C441.715 645.694 435.168 653.729 430.367 666.497C428.2 672.259 426.08 678.266 424.113 684.059Z" fill="#E18971"/>
<path d="M465.012 708.973C462.765 715.396 453.347 715.58 452.102 708.891V708.891C451.767 707.093 452.423 707.391 453.215 705.743L463.945 683.399C465.141 680.908 466.782 678.601 469.111 677.115C472.743 674.799 476.237 673.847 479.484 673.847V673.847C480.849 673.847 481.343 675.521 480.433 676.538C477.387 679.94 473.624 685.644 470.041 695.122C468.228 699.923 466.54 704.606 465.012 708.973Z" fill="#E18971"/>
<path d="M731.423 542.438C733.303 540.555 735.144 538.602 736.913 536.584C737.198 536.261 737.483 535.935 737.765 535.607C735.736 537.971 733.606 540.252 731.423 542.438Z" fill="#146187"/>
<path d="M612.811 515.367L599.933 507.65L510.622 454.111C508.242 452.686 505.549 451.959 502.837 451.959C501.76 451.959 500.681 452.074 499.618 452.305C499.413 452.35 499.208 452.401 499.005 452.454L498.768 452.514C498.477 452.596 498.188 452.684 497.897 452.782L472.193 461.652L470.725 462.158C470.462 462.25 470.204 462.348 469.948 462.453C469.727 462.543 469.51 462.639 469.297 462.74C469.76 462.52 470.239 462.326 470.725 462.158L472.193 461.652L497.897 452.782C498.504 452.577 499.108 452.407 499.724 452.278C500.752 452.063 501.795 451.957 502.835 451.957C505.545 451.957 508.238 452.684 510.622 454.111L599.933 507.65L604.967 510.665L612.811 515.367ZM462.883 468.367C463.458 467.452 464.134 466.602 464.886 465.842C466.147 464.566 467.622 463.516 469.256 462.76C468.871 462.938 468.498 463.135 468.134 463.344L467.956 463.45C467.628 463.643 467.309 463.847 466.997 464.065L466.911 464.122C466.586 464.353 466.272 464.599 465.965 464.855L465.771 465.023C465.467 465.285 465.168 465.556 464.886 465.842C464.134 466.602 463.458 467.452 462.883 468.367Z" fill="#5C3026"/>
<path d="M694.397 570.628C694.389 570.633 694.378 570.63 694.372 570.622V570.622L690.69 565.899C686.963 561.121 682.383 557.07 677.186 553.961L654.938 540.625L612.811 515.367L604.967 510.665L599.933 507.65L510.622 454.111C508.238 452.684 505.545 451.957 502.835 451.957C501.795 451.957 500.752 452.063 499.724 452.278C499.108 452.407 498.504 452.577 497.897 452.782L472.193 461.652L470.725 462.158C470.239 462.326 469.76 462.52 469.297 462.739C469.283 462.748 469.269 462.754 469.256 462.76C467.622 463.516 466.147 464.566 464.886 465.842C464.134 466.602 463.458 467.452 462.883 468.367C454.612 481.433 446.197 490.723 438.078 497.238C433.082 501.248 431.147 496.841 436.236 492.949V492.949C452.047 480.861 459.211 464.434 462.425 453.034C464.653 445.132 470.101 438.01 477.969 435.665C487.785 432.74 500.325 429.293 504.912 429.293C504.988 429.293 505.061 429.296 505.133 429.296C509.534 429.412 567.666 464.685 618.136 496.053C621.186 497.948 625.084 497.998 627.938 495.82C629.207 494.851 630.473 493.808 631.73 492.684C638.724 486.428 649.774 483.739 644.682 491.621V491.621C641.494 496.556 637.76 508.29 642.737 511.411C650.365 516.195 657.498 520.691 663.863 524.725C668.372 527.582 673.867 528.641 678.935 526.967C684.011 525.29 689.579 522.919 695.077 519.565C696.792 518.519 701.503 516.524 708.62 513.772C719.031 509.746 730.599 515.586 733.814 526.276L734.602 528.897C736.04 533.679 734.952 538.905 731.423 542.437V542.437C722.702 551.17 713.146 558.379 705.923 563.321C699.333 567.841 694.692 570.462 694.397 570.628ZM883.742 481.969C876.808 484.506 869.099 481.188 866.176 474.407V474.407C862.961 466.949 866.787 458.333 874.478 455.723C883.224 452.754 891.973 449.791 900.642 446.86C907.586 444.512 915.137 448.099 917.709 454.963V454.963C920.356 462.029 916.74 469.898 909.654 472.49L883.742 481.969Z" fill="#E18971"/>
<path d="M879.473 505.244L824.951 523.854L763.306 544.895L700.576 363.323L761.991 340.793L802.204 326.044L879.473 505.244Z" fill="white"/>
<path d="M824.951 523.854L761.991 340.793L802.204 326.044L879.473 505.244L824.951 523.854Z" fill="#B3B3B3"/>
<path d="M995.363 234.3C1008.64 227.945 1024 237.621 1024 252.339V491.488C1024 499.297 1019.46 506.391 1012.36 509.656L891.422 565.32C881.094 570.073 868.886 565.273 864.563 554.758L848.548 515.809L841.052 497.582L830.075 470.856L812.462 428.012L807.997 417.137L776.95 341.647L774.676 336.138V336.138C772.942 331.909 775.065 327.086 779.355 325.508L889.467 285L995.363 234.3Z" fill="black"/>
<path d="M193.042 550.431L136.757 524.88L231.061 354.025L270.256 372.906L193.042 550.431Z" fill="#B3B3B3"/>
<path d="M253.87 355.733C257.974 357.715 259.61 362.71 257.475 366.735V366.735L251.986 377.098L216.453 444.129L210.964 454.513L176.005 520.458L166.502 538.378L146.771 575.607C141.447 585.653 128.831 589.246 119.014 583.512L37.028 535.634L13.4352 521.851L9.9162 519.796C3.77545 516.211 0 509.635 0 502.525V250.565C0 234.989 17.0187 225.391 30.3479 233.45L148.194 304.702L253.87 355.733Z" fill="black"/>
<path d="M54.2824 515.977C53.7192 527.571 43.864 536.513 32.2703 535.949C20.6776 535.386 11.7359 525.531 12.2999 513.937C12.8631 502.344 22.7184 493.402 34.3111 493.965C45.9048 494.531 54.8456 504.386 54.2824 515.977Z" fill="#333333"/>
<path d="M502.485 986.492C502.485 986.492 502.485 986.493 502.486 986.493V986.493C502.486 986.493 502.487 986.492 502.487 986.491C502.423 986.189 502.374 985.888 502.335 985.594C502.374 985.893 502.423 986.193 502.485 986.492Z" fill="#29ABE2"/>
<path d="M502.796 987.678C502.794 987.678 502.793 987.68 502.793 987.682C502.957 988.193 503.151 988.687 503.378 989.162C503.147 988.677 502.957 988.182 502.799 987.68C502.799 987.679 502.798 987.678 502.796 987.678V987.678Z" fill="#29ABE2"/>
</g>
<defs>
<filter id="filter0_d_28_443" x="55.9529" y="65.9519" width="912.095" height="912.096" filterUnits="userSpaceOnUse" color-interpolation-filters="sRGB">
<feFlood flood-opacity="0" result="BackgroundImageFix"/>
<feColorMatrix in="SourceAlpha" type="matrix" values="0 0 0 0 0 0 0 0 0 0 0 0 0 0 0 0 0 0 127 0" result="hardAlpha"/>
<feOffset dy="10"/>
<feGaussianBlur stdDeviation="35"/>
<feComposite in2="hardAlpha" operator="out"/>
<feColorMatrix type="matrix" values="0 0 0 0 0.933333 0 0 0 0 0.364706 0 0 0 0 0.509804 0 0 0 1 0"/>
<feBlend mode="normal" in2="BackgroundImageFix" result="effect1_dropShadow_28_443"/>
<feBlend mode="normal" in="SourceGraphic" in2="effect1_dropShadow_28_443" result="shape"/>
</filter>
<clipPath id="clip0_28_443">
<rect width="1024" height="1024" fill="white"/>
</clipPath>
</defs>
</svg>
